<?xml version="1.0" encoding="UTF-8" standalone="no"?>
<svg
   version="1.0"
   width="768.000000pt"
   height="768.000000pt"
   viewBox="0 0 768.000000 768.000000"
   preserveAspectRatio="xMidYMid meet"
   id="svg1"
   sodipodi:docname="logo-hys.svg"
   inkscape:export-filename="logo-hys.png"
   inkscape:export-xdpi="96"
   inkscape:export-ydpi="96"
   inkscape:version="1.4.3 (0d15f75, 2025-12-25)"
   xmlns:inkscape="http://www.inkscape.org/namespaces/inkscape"
   xmlns:sodipodi="http://sodipodi.sourceforge.net/DTD/sodipodi-0.dtd"
   xmlns="http://www.w3.org/2000/svg"
   xmlns:svg="http://www.w3.org/2000/svg">
  <defs
     id="defs1" />
  <sodipodi:namedview
     id="namedview1"
     pagecolor="#ffffff"
     bordercolor="#000000"
     borderopacity="0.25"
     inkscape:showpageshadow="2"
     inkscape:pageopacity="0.0"
     inkscape:pagecheckerboard="0"
     inkscape:deskcolor="#d1d1d1"
     inkscape:document-units="pt"
     inkscape:zoom="0.78808594"
     inkscape:cx="512"
     inkscape:cy="512"
     inkscape:window-width="1920"
     inkscape:window-height="1009"
     inkscape:window-x="-8"
     inkscape:window-y="-8"
     inkscape:window-maximized="1"
     inkscape:current-layer="svg1" />
  <g
     transform="translate(0.000000,768.000000) scale(0.100000,-0.100000)"
     fill="#000000"
     stroke="none"
     id="g1">
    <path
       d="M4967 5949 c-301 -103 -697 -565 -1087 -1267 -35 -63 -73 -120 -84 -127 -44 -28 -716 -240 -737 -233 -4 2 18 64 50 138 32 74 95 223 140 330 205 489 301 700 321 711 8 4 51 17 95 29 212 57 365 182 365 297 0 123 -134 159 -287 79 -90 -47 -188 -145 -268 -267 -36 -54 -69 -100 -74 -103 -4 -3 -120 -10 -257 -16 -137 -6 -307 -15 -379 -21 -354 -29 -586 -115 -730 -270 -179 -194 -192 -484 -28 -629 72 -63 188 -89 188 -41 0 7 -26 23 -58 36 -70 28 -92 46 -121 100 -18 34 -21 56 -21 155 1 101 4 122 27 177 72 170 205 286 403 352 159 53 225 60 775 90 91 5 166 8 167 7 2 -2 -46 -99 -105 -217 -96 -190 -240 -497 -419 -893 -32 -71 -65 -133 -73 -137 -8 -4 -80 -33 -160 -65 -158 -61 -355 -156 -465 -223 -393 -240 -625 -549 -625 -833 0 -140 49 -231 154 -286 46 -24 61 -27 146 -26 117 1 177 21 293 97 106 70 169 128 268 246 167 199 296 413 500 824 75 154 139 281 141 283 2 2 76 24 163 50 88 25 254 77 370 115 115 38 211 69 213 69 1 0 -15 -35 -37 -77 -60 -121 -164 -366 -209 -494 -105 -300 -142 -478 -149 -709 l-5 -165 -87 -85 c-103 -100 -166 -181 -220 -282 -77 -143 -109 -290 -91 -417 14 -103 31 -145 58 -149 34 -5 36 17 11 118 -20 83 -21 99 -11 175 12 94 47 190 100 280 43 74 161 214 213 256 l38 30 7 -28 c26 -120 75 -215 148 -288 l50 -50 2 -130 c2 -152 21 -233 87 -359 77 -148 228 -281 387 -340 83 -30 227 -56 319 -56 230 0 493 86 679 222 322 234 492 596 492 1048 0 159 -13 283 -65 643 -19 130 -35 251 -35 266 0 26 9 34 88 76 236 128 437 299 501 428 27 52 35 83 39 140 5 85 -13 133 -72 185 -44 39 -91 52 -182 52 -226 0 -430 -174 -525 -447 -28 -82 -59 -271 -59 -363 l0 -78 -152 -65 c-84 -35 -268 -108 -408 -161 -621 -237 -869 -344 -1063 -459 -37 -22 -70 -37 -73 -34 -7 7 23 174 52 292 59 231 182 560 322 861 143 305 119 271 240 334 133 69 341 194 436 262 273 197 499 431 610 631 103 186 100 354 -6 408 -50 26 -154 25 -231 -2z m198 -53 c43 -18 55 -42 55 -111 0 -250 -384 -677 -870 -965 -111 -67 -240 -133 -240 -125 0 4 14 32 32 63 98 178 139 249 206 357 286 459 514 717 687 777 61 21 86 22 130 4z m-1217 -22 c66 -46 -11 -165 -154 -237 -62 -31 -183 -71 -191 -63 -10 9 78 153 129 210 48 54 133 106 173 106 11 0 31 -7 43 -16z m1992 -1183 c19 -10 46 -33 58 -52 33 -48 28 -141 -12 -223 -35 -72 -160 -200 -266 -272 -97 -66 -250 -154 -269 -154 -12 0 -13 19 -8 118 14 281 116 490 279 571 74 38 162 42 218 12z m-3190 -538 c0 -14 -264 -536 -331 -653 -183 -322 -349 -525 -489 -600 -58 -31 -74 -35 -141 -35 -99 0 -148 30 -186 111 -63 138 -11 348 135 540 175 232 462 425 887 598 116 47 125 50 125 39z m2490 -358 c0 -8 13 -137 30 -286 57 -515 59 -710 10 -916 -118 -498 -527 -834 -985 -810 -307 16 -543 204 -625 498 -22 82 -36 247 -22 267 7 11 20 10 68 -4 83 -25 241 -25 314 0 121 41 245 144 293 244 19 37 19 44 7 52 -24 15 -28 13 -63 -42 -75 -117 -173 -186 -300 -209 -82 -15 -173 -1 -249 37 -49 25 -50 27 -45 61 10 60 102 234 161 305 103 123 266 222 416 254 102 22 274 15 349 -14 111 -43 188 -119 233 -229 19 -49 23 -76 22 -173 0 -95 -4 -125 -23 -172 -28 -72 -107 -160 -162 -182 -29 -12 -39 -21 -37 -34 5 -27 52 -26 118 4 156 70 249 262 221 457 -37 263 -245 420 -556 419 -224 -1 -412 -77 -568 -229 -97 -94 -164 -200 -224 -353 -10 -25 -10 -25 -32 18 -31 61 -50 145 -53 237 l-3 80 70 48 c155 105 460 241 995 442 113 43 297 115 410 161 113 46 211 83 218 83 6 1 12 -6 12 -14z"
       id="path1" />
  </g>
</svg>
